<?xml version="1.0" encoding="utf-8"?>
<!-- Generator: Adobe Illustrator 24.0.0, SVG Export Plug-In . SVG Version: 6.00 Build 0)  -->
<svg version="1.1" id="Layer_1" xmlns="http://www.w3.org/2000/svg" xmlns:xlink="http://www.w3.org/1999/xlink" x="0px" y="0px"
	 viewBox="0 0 64 64" style="enable-background:new 0 0 64 64;" xml:space="preserve">
<style type="text/css">
	.st0{fill:none;}
	.st1{fill:#231F20;}
</style>
<path class="st1" d="M63.1,26.5c0-0.1,0-0.2,0-0.3c-1.1-6.1-4-11.9-8.7-16.5C49.6,5,43.8,2.1,37.8,1c-0.1,0-0.2,0-0.3,0
	C27.7-0.8,17.2,2.1,9.7,9.7c-7.6,7.6-10.5,18.1-8.7,28c0,0,0,0,0,0.1c1.1,6.1,4,11.9,8.7,16.6c6.2,6.2,14.2,9.2,22.3,9.2
	s16.2-3.1,22.3-9.2C61.9,46.8,64.8,36.3,63.1,26.5z M38,3c5.2,1.1,10.1,3.5,14.2,7.4L40.8,21.9C36.1,16.7,35.1,9.3,38,3z M53.6,11.7
	c3.9,4.1,6.3,9,7.4,14.2c-6.3,3-13.7,1.9-18.9-2.7L53.6,11.7z M36.1,2.6c-3.1,6.9-1.8,14.9,3.4,20.6L32,30.6L11.7,10.4
	c5.7-5.3,13-8,20.3-8C33.4,2.4,34.7,2.5,36.1,2.6z M10.4,11.7L30.6,32L23,39.6c-5.6-5.1-13.5-6.4-20.3-3.5
	C1.4,27.6,4,18.5,10.4,11.7z M25.9,61c-5.1-1.1-10-3.5-14.1-7.4L23,42.4C27.6,47.5,28.7,54.7,25.9,61z M3,38.1
	c6.2-2.9,13.4-1.8,18.6,2.9L10.4,52.3C6.5,48.2,4.1,43.3,3,38.1z M27.8,61.3c2.9-6.9,1.6-14.8-3.5-20.3l7.6-7.6l20.3,20.3
	C45.5,60,36.4,62.6,27.8,61.3z M53.6,52.3L33.4,32l7.4-7.4c3.6,3.3,8.2,5,12.8,5c2.6,0,5.2-0.5,7.7-1.6C62.5,36.5,60,45.5,53.6,52.3
	z"/>
</svg>
